<mxfile host="app.diagrams.net" agent="Mozilla/5.0 (Windows NT 10.0; Win64; x64) AppleWebKit/537.36 (KHTML, like Gecko) Chrome/131.0.0.0 Safari/537.36" version="26.0.6">
  <diagram name="Page-1" id="Mh2ofhbNfgTt5GThPogN">
    <mxGraphModel dx="1105" dy="595" grid="1" gridSize="10" guides="1" tooltips="1" connect="1" arrows="1" fold="1" page="1" pageScale="1" pageWidth="850" pageHeight="1100" math="0" shadow="0">
      <root>
        <mxCell id="0" />
        <mxCell id="1" parent="0" />
        <mxCell id="RdI-R6nXzMOCluYzVIAY-59" value="" style="rounded=1;whiteSpace=wrap;html=1;fillColor=#f8cecc;strokeColor=#b85450;opacity=30;" vertex="1" parent="1">
          <mxGeometry x="200" y="590" width="100" height="180" as="geometry" />
        </mxCell>
        <mxCell id="RdI-R6nXzMOCluYzVIAY-19" value="User" style="shape=umlActor;verticalLabelPosition=bottom;verticalAlign=top;html=1;outlineConnect=0;" vertex="1" parent="1">
          <mxGeometry x="70" y="630" width="30" height="60" as="geometry" />
        </mxCell>
        <mxCell id="RdI-R6nXzMOCluYzVIAY-27" style="edgeStyle=orthogonalEdgeStyle;rounded=0;orthogonalLoop=1;jettySize=auto;html=1;exitX=1;exitY=0.5;exitDx=0;exitDy=0;entryX=0;entryY=0.5;entryDx=0;entryDy=0;" edge="1" parent="1" source="RdI-R6nXzMOCluYzVIAY-22" target="RdI-R6nXzMOCluYzVIAY-26">
          <mxGeometry relative="1" as="geometry">
            <Array as="points">
              <mxPoint x="290" y="720" />
              <mxPoint x="325" y="720" />
              <mxPoint x="325" y="630" />
            </Array>
          </mxGeometry>
        </mxCell>
        <mxCell id="RdI-R6nXzMOCluYzVIAY-50" value="User mood" style="edgeLabel;html=1;align=center;verticalAlign=middle;resizable=0;points=[];" vertex="1" connectable="0" parent="RdI-R6nXzMOCluYzVIAY-27">
          <mxGeometry x="-0.0489" y="-3" relative="1" as="geometry">
            <mxPoint as="offset" />
          </mxGeometry>
        </mxCell>
        <mxCell id="RdI-R6nXzMOCluYzVIAY-42" style="edgeStyle=orthogonalEdgeStyle;rounded=0;orthogonalLoop=1;jettySize=auto;html=1;exitX=0;exitY=0.5;exitDx=0;exitDy=0;endArrow=none;endFill=0;startArrow=classic;startFill=1;" edge="1" parent="1" source="RdI-R6nXzMOCluYzVIAY-22" target="RdI-R6nXzMOCluYzVIAY-19">
          <mxGeometry relative="1" as="geometry">
            <Array as="points">
              <mxPoint x="180" y="730" />
              <mxPoint x="180" y="660" />
            </Array>
          </mxGeometry>
        </mxCell>
        <mxCell id="RdI-R6nXzMOCluYzVIAY-53" value="Video image" style="edgeLabel;html=1;align=center;verticalAlign=middle;resizable=0;points=[];" vertex="1" connectable="0" parent="RdI-R6nXzMOCluYzVIAY-42">
          <mxGeometry x="-0.2743" relative="1" as="geometry">
            <mxPoint as="offset" />
          </mxGeometry>
        </mxCell>
        <mxCell id="RdI-R6nXzMOCluYzVIAY-49" style="edgeStyle=orthogonalEdgeStyle;rounded=0;orthogonalLoop=1;jettySize=auto;html=1;exitX=0;exitY=0.75;exitDx=0;exitDy=0;dashed=1;dashPattern=12 12;" edge="1" parent="1" source="RdI-R6nXzMOCluYzVIAY-22" target="RdI-R6nXzMOCluYzVIAY-19">
          <mxGeometry relative="1" as="geometry">
            <Array as="points">
              <mxPoint x="140" y="745" />
              <mxPoint x="140" y="680" />
            </Array>
          </mxGeometry>
        </mxCell>
        <mxCell id="RdI-R6nXzMOCluYzVIAY-22" value="Interaction sub-system" style="rounded=1;whiteSpace=wrap;html=1;fillColor=#dae8fc;strokeColor=#6c8ebf;" vertex="1" parent="1">
          <mxGeometry x="210" y="700" width="80" height="60" as="geometry" />
        </mxCell>
        <mxCell id="RdI-R6nXzMOCluYzVIAY-28" style="edgeStyle=orthogonalEdgeStyle;rounded=0;orthogonalLoop=1;jettySize=auto;html=1;exitX=1;exitY=0.5;exitDx=0;exitDy=0;entryX=0;entryY=0.5;entryDx=0;entryDy=0;" edge="1" parent="1" source="RdI-R6nXzMOCluYzVIAY-23" target="RdI-R6nXzMOCluYzVIAY-26">
          <mxGeometry relative="1" as="geometry">
            <Array as="points">
              <mxPoint x="290" y="630" />
            </Array>
          </mxGeometry>
        </mxCell>
        <mxCell id="RdI-R6nXzMOCluYzVIAY-51" value="text" style="edgeLabel;html=1;align=center;verticalAlign=middle;resizable=0;points=[];" vertex="1" connectable="0" parent="RdI-R6nXzMOCluYzVIAY-28">
          <mxGeometry x="-0.3921" y="3" relative="1" as="geometry">
            <mxPoint x="-1" as="offset" />
          </mxGeometry>
        </mxCell>
        <mxCell id="RdI-R6nXzMOCluYzVIAY-47" style="edgeStyle=orthogonalEdgeStyle;rounded=0;orthogonalLoop=1;jettySize=auto;html=1;exitX=0;exitY=0.5;exitDx=0;exitDy=0;startArrow=classic;startFill=1;endArrow=none;endFill=0;" edge="1" parent="1" source="RdI-R6nXzMOCluYzVIAY-23" target="RdI-R6nXzMOCluYzVIAY-19">
          <mxGeometry relative="1" as="geometry" />
        </mxCell>
        <mxCell id="RdI-R6nXzMOCluYzVIAY-52" value="speech" style="edgeLabel;html=1;align=center;verticalAlign=middle;resizable=0;points=[];" vertex="1" connectable="0" parent="RdI-R6nXzMOCluYzVIAY-47">
          <mxGeometry x="-0.4858" y="-2" relative="1" as="geometry">
            <mxPoint as="offset" />
          </mxGeometry>
        </mxCell>
        <mxCell id="RdI-R6nXzMOCluYzVIAY-23" value="User Perception sub-system" style="rounded=1;whiteSpace=wrap;html=1;fillColor=#dae8fc;strokeColor=#6c8ebf;" vertex="1" parent="1">
          <mxGeometry x="210" y="599" width="80" height="60" as="geometry" />
        </mxCell>
        <mxCell id="RdI-R6nXzMOCluYzVIAY-30" style="edgeStyle=orthogonalEdgeStyle;rounded=0;orthogonalLoop=1;jettySize=auto;html=1;exitX=1;exitY=0.5;exitDx=0;exitDy=0;entryX=0;entryY=0.5;entryDx=0;entryDy=0;" edge="1" parent="1" source="RdI-R6nXzMOCluYzVIAY-26" target="RdI-R6nXzMOCluYzVIAY-29">
          <mxGeometry relative="1" as="geometry" />
        </mxCell>
        <mxCell id="RdI-R6nXzMOCluYzVIAY-26" value="Packeged text, and user mood" style="rounded=1;whiteSpace=wrap;html=1;fillColor=#fff2cc;strokeColor=#d6b656;" vertex="1" parent="1">
          <mxGeometry x="380" y="600" width="80" height="60" as="geometry" />
        </mxCell>
        <mxCell id="RdI-R6nXzMOCluYzVIAY-32" style="edgeStyle=orthogonalEdgeStyle;rounded=0;orthogonalLoop=1;jettySize=auto;html=1;exitX=0.5;exitY=1;exitDx=0;exitDy=0;" edge="1" parent="1" source="RdI-R6nXzMOCluYzVIAY-29" target="RdI-R6nXzMOCluYzVIAY-31">
          <mxGeometry relative="1" as="geometry" />
        </mxCell>
        <mxCell id="RdI-R6nXzMOCluYzVIAY-29" value="LLM chatbot" style="rounded=1;whiteSpace=wrap;html=1;fillColor=#d5e8d4;strokeColor=#82b366;" vertex="1" parent="1">
          <mxGeometry x="540" y="600" width="80" height="60" as="geometry" />
        </mxCell>
        <mxCell id="RdI-R6nXzMOCluYzVIAY-44" style="edgeStyle=orthogonalEdgeStyle;rounded=0;orthogonalLoop=1;jettySize=auto;html=1;exitX=0;exitY=0.5;exitDx=0;exitDy=0;" edge="1" parent="1" source="RdI-R6nXzMOCluYzVIAY-31" target="RdI-R6nXzMOCluYzVIAY-35">
          <mxGeometry relative="1" as="geometry" />
        </mxCell>
        <mxCell id="RdI-R6nXzMOCluYzVIAY-56" value="mood" style="edgeLabel;html=1;align=center;verticalAlign=middle;resizable=0;points=[];" vertex="1" connectable="0" parent="RdI-R6nXzMOCluYzVIAY-44">
          <mxGeometry x="-0.3063" relative="1" as="geometry">
            <mxPoint as="offset" />
          </mxGeometry>
        </mxCell>
        <mxCell id="RdI-R6nXzMOCluYzVIAY-45" style="edgeStyle=orthogonalEdgeStyle;rounded=0;orthogonalLoop=1;jettySize=auto;html=1;exitX=0.5;exitY=1;exitDx=0;exitDy=0;entryX=0.5;entryY=1;entryDx=0;entryDy=0;dashed=1;dashPattern=12 12;" edge="1" parent="1" source="RdI-R6nXzMOCluYzVIAY-31" target="RdI-R6nXzMOCluYzVIAY-22">
          <mxGeometry relative="1" as="geometry">
            <Array as="points">
              <mxPoint x="580" y="790" />
              <mxPoint x="250" y="790" />
            </Array>
          </mxGeometry>
        </mxCell>
        <mxCell id="RdI-R6nXzMOCluYzVIAY-58" value="response" style="edgeLabel;html=1;align=center;verticalAlign=middle;resizable=0;points=[];" vertex="1" connectable="0" parent="RdI-R6nXzMOCluYzVIAY-45">
          <mxGeometry x="0.0754" y="2" relative="1" as="geometry">
            <mxPoint as="offset" />
          </mxGeometry>
        </mxCell>
        <mxCell id="RdI-R6nXzMOCluYzVIAY-31" value="Agent&#39;s response, and mood" style="rounded=1;whiteSpace=wrap;html=1;fillColor=#fff2cc;strokeColor=#d6b656;" vertex="1" parent="1">
          <mxGeometry x="540" y="700" width="80" height="60" as="geometry" />
        </mxCell>
        <mxCell id="RdI-R6nXzMOCluYzVIAY-43" style="edgeStyle=orthogonalEdgeStyle;rounded=0;orthogonalLoop=1;jettySize=auto;html=1;exitX=0;exitY=0.5;exitDx=0;exitDy=0;dashed=1;dashPattern=12 12;" edge="1" parent="1" source="RdI-R6nXzMOCluYzVIAY-35" target="RdI-R6nXzMOCluYzVIAY-22">
          <mxGeometry relative="1" as="geometry" />
        </mxCell>
        <mxCell id="RdI-R6nXzMOCluYzVIAY-35" value="Expression generation" style="rounded=1;whiteSpace=wrap;html=1;fillColor=#e1d5e7;strokeColor=#9673a6;" vertex="1" parent="1">
          <mxGeometry x="380" y="700" width="80" height="60" as="geometry" />
        </mxCell>
      </root>
    </mxGraphModel>
  </diagram>
</mxfile>
